<svg width="1440" height="519" viewBox="0 0 1440 519" fill="none" xmlns="http://www.w3.org/2000/svg">
<g clip-path="url(#clip0)">
<path d="M552.812 269.644L543.19 420.15H552.915L578.222 294.104L593.098 420.15H602.215L602.731 269.644H552.812Z" fill="#FF91A3"/>
<path d="M605.367 420.144C605.367 420.144 611.975 419.192 618.571 427.023H593.431L593.109 420.144H605.367Z" fill="#8754CF"/>
<path d="M540.664 420.144C540.664 420.144 534.05 419.192 527.459 427.023H552.617L552.944 420.144H540.664Z" fill="#8754CF"/>
<path d="M590.796 32.847L600.883 58.8266C601.194 59.6325 601.698 60.3502 602.35 60.9177C603.003 61.4851 603.784 61.885 604.626 62.0826L631.776 68.5202C632.741 68.7542 633.622 69.2524 634.32 69.959C635.017 70.6656 635.503 71.5524 635.723 72.5197C635.943 73.4871 635.889 74.4965 635.566 75.4346C635.243 76.3727 634.664 77.2021 633.894 77.8297L612.29 95.4628C611.617 96.0115 611.088 96.716 610.749 97.5152C610.409 98.3143 610.271 99.1839 610.344 100.049L612.606 127.823C612.686 128.813 612.487 129.807 612.032 130.69C611.576 131.574 610.883 132.313 610.029 132.824C609.175 133.335 608.195 133.597 607.2 133.582C606.205 133.566 605.234 133.273 604.396 132.735L580.944 117.636C580.216 117.168 579.385 116.884 578.523 116.808C577.661 116.732 576.793 116.867 575.995 117.2L550.246 127.88C549.324 128.265 548.313 128.384 547.327 128.224C546.341 128.064 545.42 127.631 544.668 126.974C543.917 126.317 543.364 125.463 543.075 124.508C542.785 123.554 542.769 122.537 543.029 121.574L550.16 94.6316C550.382 93.7968 550.398 92.9205 550.205 92.0784C550.012 91.2364 549.616 90.454 549.052 89.7991L530.87 68.6922C530.228 67.9369 529.81 67.0182 529.662 66.0389C529.514 65.0596 529.642 64.0585 530.031 63.1479C530.421 62.2372 531.058 61.453 531.869 60.8831C532.68 60.3132 533.634 59.9802 534.624 59.9215L562.486 58.368C563.349 58.3199 564.188 58.0631 564.93 57.6198C565.672 57.1764 566.295 56.5597 566.746 55.8228L581.26 32.0044C581.778 31.1553 582.523 30.4678 583.412 30.0196C584.301 29.5714 585.298 29.3804 586.29 29.468C587.282 29.5557 588.229 29.9185 589.025 30.5156C589.822 31.1128 590.435 31.9203 590.796 32.847Z" fill="#FFCD3D"/>
<path d="M547.725 132.334C547.725 132.334 549.729 122.124 547.984 120.984C546.503 120.112 545.762 127.261 545.762 127.261C545.762 127.261 544.281 120.646 543.948 117.292C543.615 113.939 539.498 114.472 538.494 120.915C537.489 127.358 542.065 133.475 542.065 133.475L547.725 132.334Z" fill="#FF91A3"/>
<path d="M608.208 131.749C608.208 131.749 606.343 122.124 608.088 120.984C609.569 120.112 610.31 127.261 610.31 127.261C610.31 127.261 611.785 120.646 612.124 117.292C612.463 113.939 616.568 114.472 617.578 120.915C618.588 127.358 614.007 133.475 614.007 133.475L608.208 131.749Z" fill="#FF91A3"/>
<path d="M566.941 194.543L538.235 173.115L547.863 131.749H541.91C541.91 131.749 525.071 153.16 525.071 174.25C525.071 191.699 558.588 210.897 558.588 210.897L566.941 194.543Z" fill="#FF91A3"/>
<path d="M588.786 195.512L619.214 171.137L608.208 131.749H614.162C614.162 131.749 631.242 152.736 631.242 173.826C631.242 189.968 597.484 210.897 597.484 210.897L588.786 195.512Z" fill="#FF91A3"/>
<path d="M570.414 190.92C570.414 190.92 567.842 186.122 555.453 186.122C553.051 188.482 551.199 191.342 550.029 194.497C548.858 197.652 548.397 201.026 548.679 204.38C548.679 204.38 551.452 210.496 556.498 212.193C564.593 208.478 570.414 190.92 570.414 190.92Z" fill="#BE1C2F"/>
<path d="M585.858 190.92C585.858 190.92 588.43 186.122 600.82 186.122C603.221 188.482 605.073 191.342 606.244 194.497C607.415 197.652 607.876 201.026 607.594 204.38C607.594 204.38 604.821 210.496 599.775 212.193C591.68 208.478 585.858 190.92 585.858 190.92Z" fill="#BE1C2F"/>
<path d="M577.057 189.968C577.057 189.968 559.656 188.822 556.555 208.261C552.824 231.672 566.315 234.343 552.824 269.644H602.772C602.772 269.644 591.697 256.826 600.527 227.539C609.357 198.252 590.836 189.968 577.057 189.968Z" fill="#BE1C2F"/>
<path d="M578.136 200.247C576.088 200.247 574.124 199.434 572.676 197.988C571.228 196.542 570.414 194.581 570.414 192.536V179.684H585.858V192.536C585.858 194.581 585.045 196.542 583.597 197.988C582.148 199.434 580.184 200.247 578.136 200.247Z" fill="#FF7E93"/>
<path d="M578.435 145.175H578.28C576.718 145.209 557.198 146.189 557.198 174.25C557.198 203.485 564.662 222.718 570.816 222.718V169.842L578.36 162.206L585.904 169.842V222.724C592.024 222.724 599.516 203.491 599.516 174.256C599.516 146.189 579.996 145.209 578.435 145.175Z" fill="#FF5E4A"/>
<path d="M565.764 164.963C565.764 164.963 561.676 164.533 561.676 168.81C561.676 173.086 566.941 173.522 566.941 173.522L565.764 164.963Z" fill="#FF91A3"/>
<path d="M590.508 164.963C590.508 164.963 594.596 164.533 594.596 168.81C594.596 173.086 589.332 173.522 589.332 173.522L590.508 164.963Z" fill="#FF91A3"/>
<path d="M578.136 185.325C574.806 185.31 571.617 183.982 569.262 181.631C566.908 179.28 565.578 176.096 565.563 172.771V162.865C565.578 159.54 566.908 156.356 569.262 154.005C571.617 151.654 574.806 150.326 578.136 150.311C581.466 150.326 584.656 151.654 587.01 154.005C589.365 156.356 590.694 159.54 590.709 162.865V172.771C590.694 176.096 589.365 179.28 587.01 181.631C584.656 183.982 581.466 185.31 578.136 185.325Z" fill="#FF91A3"/>
<path d="M575.116 176.101C575.116 176.101 576.77 175.064 578.119 176.313C578.516 175.95 579.029 175.737 579.568 175.713C580.106 175.689 580.636 175.855 581.064 176.182C580.804 176.718 580.396 177.17 579.887 177.483C579.378 177.795 578.791 177.957 578.194 177.947C575.559 177.947 575.116 176.101 575.116 176.101Z" fill="#FF5E4A"/>
<path d="M571.781 168.179C571.781 169.096 572.234 169.842 572.786 169.842C573.337 169.842 573.796 169.096 573.796 168.179C573.796 167.262 573.342 166.511 572.786 166.511C572.229 166.511 571.781 167.256 571.781 168.179Z" fill="#341239"/>
<path d="M582.431 168.179C582.431 169.096 582.879 169.842 583.435 169.842C583.992 169.842 584.44 169.096 584.44 168.179C584.44 167.262 583.992 166.511 583.435 166.511C582.879 166.511 582.431 167.256 582.431 168.179Z" fill="#341239"/>
<path d="M578.09 174.25V168.179C578.09 168.179 573.394 174.25 578.09 174.25Z" fill="#FF7E93"/>
<path d="M569.921 176.824C571.972 176.824 573.635 175.163 573.635 173.115C573.635 171.066 571.972 169.406 569.921 169.406C567.869 169.406 566.206 171.066 566.206 173.115C566.206 175.163 567.869 176.824 569.921 176.824Z" fill="#FF7E93"/>
<path d="M586.444 176.824C588.495 176.824 590.158 175.163 590.158 173.115C590.158 171.066 588.495 169.406 586.444 169.406C584.392 169.406 582.729 171.066 582.729 173.115C582.729 175.163 584.392 176.824 586.444 176.824Z" fill="#FF7E93"/>
<path d="M557.537 253.151C557.537 253.151 530.904 291.421 535.859 356.336C560.913 364.803 588.964 365.674 615.712 356.336C621.367 288.59 597.283 253.151 597.283 253.151C597.283 253.151 579.153 259.411 557.537 253.151Z" fill="#C4C4C4"/>
<path d="M565.575 164.952C565.575 164.952 579.072 164.281 588.798 151.962C574.186 141.816 562.492 153.275 565.575 164.952Z" fill="#FF5E4A"/>
<path d="M411.775 185.812C411.775 185.812 425.221 186.242 440.016 220.35L458.474 197.707H466.046C466.046 197.707 448.283 233.352 438.914 233.352C429.544 233.352 410.765 211.551 411.775 185.812Z" fill="#FF7E93"/>
<path d="M368.441 420.144C368.441 420.144 362.218 419.192 356 427.023H379.665L379.969 420.144H368.441Z" fill="#38123A"/>
<path d="M429.561 420.144C429.561 420.144 435.779 419.192 441.997 427.023H418.337L418.033 420.144H429.561Z" fill="#38123A"/>
<path d="M374.636 269.644L370.135 420.11L379.969 420.15L399.788 289.983L418.033 420.15L427.15 420.098L424.934 269.644H374.636Z" fill="#FF91A3"/>
<path d="M374.636 269.644H424.917C424.917 269.644 415.57 254.888 418.2 236.47C402.555 240.867 387.042 237.691 381.278 236.172C382.093 249.827 374.636 269.644 374.636 269.644Z" fill="#FF7E93"/>
<path d="M418.217 236.481C418.418 235.077 418.67 233.661 419.021 232.217C428.551 198.08 420.99 182.648 395.677 182.648C370.364 182.648 376.938 218.103 380.555 231.236C380.968 232.852 381.212 234.506 381.284 236.172C387.06 237.691 402.572 240.867 418.217 236.481Z" fill="#FDFDFE"/>
<path d="M463.107 111.686L470.312 138.628C470.537 139.463 470.961 140.23 471.548 140.865C472.135 141.5 472.867 141.983 473.682 142.274L499.976 151.601C500.914 151.935 501.74 152.524 502.36 153.302C502.98 154.079 503.37 155.015 503.486 156.002C503.602 156.989 503.439 157.989 503.015 158.889C502.592 159.789 501.925 160.552 501.09 161.094L477.684 176.233C476.957 176.704 476.357 177.344 475.934 178.098C475.511 178.852 475.278 179.697 475.255 180.561L474.491 208.392C474.467 209.388 474.164 210.357 473.616 211.189C473.069 212.021 472.299 212.684 471.393 213.102C470.488 213.519 469.483 213.675 468.494 213.552C467.504 213.429 466.569 213.032 465.794 212.405L444.121 194.858C443.45 194.318 442.659 193.948 441.814 193.779C440.969 193.611 440.096 193.648 439.27 193.889L412.51 201.771C411.552 202.063 410.531 202.081 409.564 201.821C408.597 201.561 407.722 201.035 407.04 200.303C406.358 199.57 405.896 198.661 405.707 197.679C405.518 196.697 405.61 195.682 405.971 194.749L415.983 168.741C416.295 167.935 416.405 167.066 416.305 166.208C416.205 165.35 415.898 164.529 415.409 163.817L399.656 140.835C399.093 140.015 398.772 139.054 398.728 138.061C398.684 137.068 398.918 136.082 399.406 135.215C399.893 134.348 400.613 133.635 401.485 133.155C402.357 132.675 403.346 132.448 404.34 132.5L432.208 133.973C433.072 134.019 433.935 133.853 434.721 133.492C435.507 133.13 436.193 132.584 436.72 131.898L453.72 109.794C454.329 109.007 455.146 108.405 456.08 108.057C457.013 107.71 458.026 107.63 459.002 107.827C459.979 108.023 460.881 108.489 461.606 109.171C462.332 109.853 462.851 110.724 463.107 111.686Z" fill="#FFCD3D"/>
<path d="M398.255 142.973C398.255 142.973 388.902 141.254 383.902 153.372C380.021 163.754 385.268 165.972 375.388 171.045C384.068 178.498 401.252 181.467 412.631 174.519C424.01 167.571 418.556 142.973 398.255 142.973Z" fill="#38123A"/>
<path d="M429.073 199.22C429.073 199.22 433.006 189.865 434.814 189.865C436.319 189.928 433.442 195.517 433.442 195.517C433.442 195.517 437.685 191.378 439.539 189.08C441.394 186.781 444.132 189.137 441.796 194.336C439.459 199.536 433.184 201.834 433.184 201.834L429.073 199.22Z" fill="#FF91A3"/>
<path d="M401.062 190.736C399.235 190.736 397.483 190.012 396.191 188.722C394.899 187.432 394.173 185.682 394.173 183.857V172.392H407.952V183.857C407.952 185.682 407.226 187.432 405.934 188.722C404.642 190.012 402.889 190.736 401.062 190.736Z" fill="#FF7E93"/>
<path d="M392.192 189.888C396.039 195.534 408.308 217.461 408.308 217.461L429.808 197.678L437.306 198.756C437.306 198.756 414.422 232.291 405.052 232.291C400.936 232.291 380.182 217.421 381.565 192.949C381.939 185.944 388.219 184.081 392.192 189.888Z" fill="#FF91A3"/>
<path d="M390.033 159.288C390.033 159.288 386.394 158.898 386.394 162.728C386.394 166.557 391.084 166.929 391.084 166.929L390.033 159.288Z" fill="#FF91A3"/>
<path d="M412.091 159.288C412.091 159.288 415.737 158.898 415.737 162.728C415.737 166.557 411.04 166.929 411.04 166.929L412.091 159.288Z" fill="#FF91A3"/>
<path d="M401.062 177.437C398.093 177.428 395.248 176.246 393.148 174.15C391.048 172.053 389.865 169.212 389.856 166.247V157.414C389.865 154.449 391.048 151.608 393.148 149.511C395.248 147.415 398.093 146.233 401.062 146.224C404.034 146.23 406.883 147.41 408.986 149.507C411.089 151.604 412.276 154.446 412.286 157.414V166.247C412.276 169.215 411.089 172.057 408.986 174.154C406.883 176.251 404.034 177.431 401.062 177.437Z" fill="#FF91A3"/>
<path d="M398.048 169.36C398.048 169.36 399.702 168.322 401.051 169.578C401.448 169.214 401.961 169.002 402.499 168.978C403.038 168.954 403.568 169.119 403.996 169.446C403.735 169.982 403.326 170.432 402.818 170.744C402.309 171.055 401.722 171.216 401.125 171.206C398.507 171.206 398.048 169.36 398.048 169.36Z" fill="#6C40BF"/>
<path d="M396.297 163.639C396.792 163.639 397.193 162.974 397.193 162.154C397.193 161.334 396.792 160.67 396.297 160.67C395.802 160.67 395.401 161.334 395.401 162.154C395.401 162.974 395.802 163.639 396.297 163.639Z" fill="#341239"/>
<path d="M405.787 163.639C406.282 163.639 406.683 162.974 406.683 162.154C406.683 161.334 406.282 160.67 405.787 160.67C405.293 160.67 404.892 161.334 404.892 162.154C404.892 162.974 405.293 163.639 405.787 163.639Z" fill="#341239"/>
<path d="M401.022 167.566V162.149C401.022 162.149 396.837 167.566 401.022 167.566Z" fill="#FF7E93"/>
<path d="M390.435 166.545C390.435 167.198 390.629 167.837 390.993 168.38C391.356 168.923 391.873 169.346 392.477 169.596C393.081 169.846 393.746 169.911 394.387 169.784C395.029 169.656 395.618 169.342 396.081 168.88C396.543 168.418 396.858 167.83 396.986 167.19C397.113 166.549 397.048 165.885 396.797 165.282C396.547 164.678 396.123 164.163 395.58 163.8C395.036 163.437 394.396 163.243 393.742 163.243C392.865 163.243 392.024 163.591 391.404 164.211C390.784 164.83 390.435 165.67 390.435 166.545Z" fill="#FF7E93"/>
<path d="M405.156 166.545C405.155 167.2 405.348 167.84 405.711 168.385C406.074 168.929 406.591 169.354 407.197 169.605C407.802 169.857 408.468 169.923 409.111 169.796C409.754 169.669 410.345 169.354 410.809 168.892C411.273 168.43 411.589 167.84 411.717 167.198C411.845 166.557 411.78 165.891 411.529 165.287C411.279 164.682 410.854 164.165 410.309 163.801C409.764 163.438 409.124 163.243 408.468 163.243C407.591 163.243 406.749 163.591 406.128 164.21C405.507 164.829 405.157 165.669 405.156 166.545Z" fill="#FF7E93"/>
<path d="M419.176 254.986C404.892 259.159 395.413 259.199 379.056 254.986C379.056 254.986 367.999 274.149 367.999 314.483C368.095 327.485 369.488 340.445 372.156 353.172C372.156 353.172 378.523 358.566 390.194 353.172C396.09 335.292 399.805 289.983 399.805 289.983C399.805 289.983 402.762 335.269 408.664 353.172C420.33 358.566 426.18 353.172 426.18 353.172C426.18 353.172 431.605 334.971 431.605 314.483C431.588 274.149 419.176 254.986 419.176 254.986Z" fill="#BE1C2F"/>
<path d="M388.747 156.485C388.747 156.485 400.844 159.924 408.48 146.74C394.19 139.224 387.599 150.351 388.747 156.485Z" fill="#38123A"/>
<path d="M1025.53 112.781C1025.53 112.781 1006.93 110.333 1003.47 132.586C1000.02 154.84 1015.9 159.265 993.089 182.923C970.279 206.581 976.044 233.34 1020.32 232.366C1064.59 231.391 1067.18 212.846 1064.59 200.126C1061.99 187.406 1050.34 187.389 1056.17 170.793C1061.99 154.198 1052.93 149.583 1049.28 138.204C1045.63 126.825 1037.94 112.7 1025.53 112.781Z" fill="#38123A"/>
<path d="M1014.1 160.509C1014.1 160.509 999.249 160.985 982.904 198.676L962.512 173.654H954.141C954.141 173.654 973.77 215.403 984.104 215.403C994.438 215.403 1019.2 198.108 1014.1 160.509Z" fill="#FF91A3"/>
<path d="M1070.26 419.427C1070.26 419.427 1077.15 418.373 1084 427H1057.85L1057.52 419.427H1070.26Z" fill="#38123A"/>
<path d="M991.481 419.427C991.481 419.427 984.592 418.373 977.737 427H1003.88L1004.22 419.427H991.481Z" fill="#38123A"/>
<path d="M1035.15 131.205C1035.15 131.205 1039.17 130.775 1039.17 134.994C1039.17 139.213 1034 139.631 1034 139.631L1035.15 131.205Z" fill="#FF91A3"/>
<path d="M1010.78 131.205C1010.78 131.205 1006.76 130.775 1006.76 134.994C1006.76 139.213 1011.93 139.631 1011.93 139.631L1010.78 131.205Z" fill="#FF91A3"/>
<path d="M1022.97 165.972C1024.98 165.972 1026.92 165.172 1028.34 163.747C1029.77 162.323 1030.57 160.391 1030.57 158.377V145.702H1015.36V158.359C1015.36 159.358 1015.55 160.348 1015.93 161.271C1016.31 162.195 1016.87 163.034 1017.58 163.741C1018.29 164.448 1019.13 165.01 1020.05 165.392C1020.97 165.775 1021.97 165.972 1022.97 165.972Z" fill="#FF7E93"/>
<path d="M1022.97 151.257C1026.25 151.248 1029.39 149.942 1031.71 147.625C1034.03 145.308 1035.34 142.169 1035.35 138.892V129.147C1035.34 125.87 1034.03 122.73 1031.71 120.413C1029.39 118.097 1026.25 116.791 1022.97 116.782C1019.68 116.792 1016.54 118.099 1014.22 120.415C1011.9 122.732 1010.59 125.871 1010.58 129.147V138.892C1010.59 142.168 1011.9 145.307 1014.22 147.624C1016.54 149.94 1019.68 151.246 1022.97 151.257Z" fill="#FF91A3"/>
<path d="M1019.95 142.257C1019.95 142.257 1021.6 140.973 1022.95 142.526C1024.35 140.916 1025.9 142.36 1025.9 142.36C1025.9 142.36 1025.15 144.544 1023.03 144.544C1022.33 144.586 1021.63 144.38 1021.07 143.961C1020.51 143.543 1020.11 142.939 1019.95 142.257Z" fill="#FF5E4A"/>
<path d="M1029.22 134.369C1029.22 135.275 1028.78 136.003 1028.24 136.003C1027.69 136.003 1027.24 135.275 1027.24 134.369C1027.24 133.463 1027.69 132.73 1028.24 132.73C1028.79 132.73 1029.22 133.463 1029.22 134.369Z" fill="#341239"/>
<path d="M1018.74 134.369C1018.74 135.275 1018.3 136.003 1017.75 136.003C1017.2 136.003 1016.76 135.275 1016.76 134.369C1016.76 133.463 1017.2 132.73 1017.75 132.73C1018.29 132.73 1018.74 133.463 1018.74 134.369Z" fill="#341239"/>
<path d="M1023.37 140.354V134.369C1023.37 134.369 1018.75 140.354 1023.37 140.354Z" fill="#FF7E93"/>
<path d="M1034.71 139.23C1034.71 139.952 1034.5 140.658 1034.1 141.259C1033.69 141.859 1033.12 142.327 1032.45 142.604C1031.79 142.88 1031.05 142.952 1030.34 142.812C1029.63 142.671 1028.98 142.323 1028.47 141.812C1027.96 141.302 1027.61 140.651 1027.47 139.943C1027.33 139.234 1027.4 138.5 1027.68 137.833C1027.95 137.166 1028.42 136.595 1029.02 136.194C1029.62 135.793 1030.33 135.579 1031.06 135.579C1032.03 135.579 1032.96 135.963 1033.64 136.648C1034.33 137.333 1034.71 138.262 1034.71 139.23Z" fill="#FF7E93"/>
<path d="M1014.78 142.887C1016.8 142.887 1018.44 141.253 1018.44 139.236C1018.44 137.219 1016.8 135.584 1014.78 135.584C1012.76 135.584 1011.13 137.219 1011.13 139.236C1011.13 141.253 1012.76 142.887 1014.78 142.887Z" fill="#FF7E93"/>
<path d="M1052.17 253.14L1068.38 419.387L1057.52 419.427L1024.38 275.611L1004.22 419.427L994.145 419.376L996.591 253.14H1052.17Z" fill="#FF91A3"/>
<path d="M1049.25 234.796C1047.27 227.741 1046.8 220.352 1047.87 213.104C1051.1 192.416 1051.88 157.007 1028.92 157.007C1004.44 157.007 995.868 178.377 1001.17 208.989C1002.66 217.268 1002.21 225.783 999.835 233.856C999.686 234.343 999.548 234.831 999.41 235.306C997.737 241.11 996.791 247.098 996.591 253.134H1052.17C1052.17 253.134 1052.17 245.59 1049.25 234.796Z" fill="#FF7E93"/>
<path d="M999.41 235.335C999.41 235.335 991.102 251.913 996.137 283.866C1013 288.131 1023.02 285.293 1023.02 285.293L1024.38 275.64L1026.54 285.041C1026.54 285.041 1040.02 289.828 1055.12 283.459C1056.84 255.158 1049.77 236.82 1049.77 236.82C1049.77 236.82 1019.76 245.08 999.41 235.335Z" fill="#BE1C2F"/>
<path d="M1003.18 184.35L993.227 178.979C993.227 178.979 995.902 170.105 1001.13 168.77L1006.29 169.807L1003.18 184.35Z" fill="#FDFDFE"/>
<path d="M1005.02 169.412C1005.02 169.412 1020.95 175.11 1044.89 167.187C1055.39 186.219 1043.56 233.77 1061.27 265.144C1061.27 265.144 1023.69 275.176 989.788 265.144C1009.37 220.316 989.788 194.119 1005.02 169.412Z" fill="#FDFDFE"/>
<path d="M952.844 129.571L948.251 160.01C948.108 160.954 947.738 161.849 947.172 162.618C946.606 163.387 945.861 164.007 945.001 164.424L917.277 177.896C916.288 178.376 915.453 179.124 914.867 180.054C914.281 180.984 913.967 182.059 913.961 183.157C913.955 184.256 914.257 185.334 914.833 186.271C915.409 187.207 916.236 187.963 917.22 188.455L944.777 202.213C945.632 202.641 946.37 203.27 946.927 204.046C947.484 204.822 947.844 205.721 947.975 206.667L952.246 237.152C952.395 238.243 952.846 239.27 953.549 240.117C954.252 240.964 955.179 241.598 956.225 241.946C957.27 242.294 958.392 242.342 959.464 242.086C960.536 241.829 961.514 241.278 962.288 240.494L983.926 218.567C984.597 217.887 985.424 217.381 986.335 217.091C987.247 216.801 988.215 216.737 989.156 216.905L1019.51 222.271C1020.59 222.465 1021.71 222.352 1022.73 221.944C1023.76 221.537 1024.64 220.851 1025.3 219.965C1025.95 219.08 1026.34 218.029 1026.42 216.933C1026.51 215.837 1026.28 214.739 1025.77 213.764L1011.58 186.437C1011.14 185.592 1010.9 184.652 1010.9 183.697C1010.9 182.742 1011.14 181.802 1011.58 180.957L1026.08 153.791C1026.6 152.82 1026.84 151.723 1026.77 150.624C1026.7 149.524 1026.32 148.467 1025.67 147.572C1025.03 146.676 1024.15 145.979 1023.13 145.558C1022.11 145.138 1020.99 145.011 1019.91 145.192L989.478 150.231C988.535 150.388 987.568 150.313 986.661 150.014C985.754 149.714 984.933 149.198 984.271 148.511L962.873 126.349C962.106 125.573 961.138 125.025 960.078 124.766C959.017 124.506 957.905 124.546 956.866 124.88C955.826 125.213 954.9 125.829 954.19 126.657C953.48 127.485 953.014 128.494 952.844 129.571Z" fill="#FFCD3D"/>
<path d="M975.533 207.011C975.533 207.011 964.584 209.499 964.234 211.488C964.022 213.127 970.664 211.069 970.664 211.069C970.664 211.069 965.342 214.893 962.483 216.469C959.624 218.046 961.668 221.48 967.782 219.909C973.896 218.338 977.594 211.975 977.594 211.975L975.533 207.011Z" fill="#FF91A3"/>
<path d="M1025.61 170.398L1018.6 190.817L973.856 207.504L976.118 212.778C976.118 212.778 1004.82 211.058 1023.6 203.032C1033.55 198.785 1041.04 188.237 1045.89 179.266C1046.76 177.666 1047.22 175.878 1047.23 174.059C1047.24 172.24 1046.81 170.446 1045.96 168.834C1045.12 167.223 1043.89 165.844 1042.38 164.819C1040.88 163.794 1039.14 163.155 1037.33 162.957C1034.82 162.682 1032.29 163.27 1030.16 164.622C1028.03 165.975 1026.43 168.012 1025.61 170.398Z" fill="#FF91A3"/>
<path d="M1020.99 183.863L1040.69 188.3C1040.69 188.3 1046.57 185.566 1048.09 176.199C1038.54 166.666 1027.11 169.377 1025.53 169.377C1017.75 176.56 1020.99 183.863 1020.99 183.863Z" fill="#FDFDFE"/>
<path d="M1006.75 130.792C1006.75 130.792 1017.58 134.489 1023.01 118.754C1026.82 130.832 1037.53 133.085 1039.82 130.792C1042.11 128.499 1020.49 97.5608 1006.75 130.792Z" fill="#38123A"/>
<path d="M748.677 207.286C748.677 170.73 730.397 176.061 712.089 176.061C693.78 176.061 694.55 207.286 694.55 207.286L690.973 269.644H750.612L748.677 207.286Z" fill="#FF7E93"/>
<path d="M690.973 269.644L682.344 420.15H695.939L721.246 294.104L736.115 420.15H749.722L750.606 269.644H690.973Z" fill="black"/>
<path d="M750.612 420.144C750.612 420.144 758.425 419.192 766.245 427.023H736.5L736.115 420.144H750.612Z" fill="#38123A"/>
<path d="M681.448 420.144C681.448 420.144 673.629 419.192 665.809 427.023H695.554L695.939 420.144H681.448Z" fill="#38123A"/>
<path d="M708.788 150.414C708.788 150.414 704.694 149.979 704.694 154.261C704.694 158.543 709.964 158.973 709.964 158.973L708.788 150.414Z" fill="#FF91A3"/>
<path d="M733.532 150.414C733.532 150.414 737.62 149.979 737.62 154.261C737.62 158.543 732.349 158.973 732.349 158.973L733.532 150.414Z" fill="#FF91A3"/>
<path d="M721.16 185.698C719.115 185.698 717.154 184.889 715.706 183.448C714.257 182.007 713.44 180.052 713.432 178.01V165.135H728.882V178.01C728.875 180.051 728.059 182.006 726.612 183.447C725.164 184.888 723.204 185.698 721.16 185.698Z" fill="#FF7E93"/>
<path d="M710.653 170.782H731.66C732.805 170.782 733.733 169.855 733.733 168.712V137.831C733.733 136.689 732.805 135.762 731.66 135.762H710.653C709.509 135.762 708.581 136.689 708.581 137.831V168.712C708.581 169.855 709.509 170.782 710.653 170.782Z" fill="#FF91A3"/>
<path d="M725.471 2.91782L738.102 27.7681C738.491 28.5339 739.059 29.1945 739.759 29.6936C740.459 30.1927 741.269 30.5154 742.121 30.6343L769.776 34.3432C770.763 34.4758 771.694 34.8817 772.463 35.5149C773.231 36.1482 773.807 36.9836 774.125 37.9266C774.442 38.8696 774.49 39.8826 774.261 40.851C774.032 41.8194 773.536 42.7045 772.83 43.4062L753.057 63.0686C752.444 63.6786 751.989 64.4284 751.731 65.2534C751.473 66.0783 751.42 66.9536 751.576 67.8036L756.588 95.2105C756.768 96.1887 756.67 97.1975 756.305 98.1227C755.939 99.048 755.322 99.8527 754.523 100.446C753.723 101.039 752.774 101.396 751.781 101.478C750.788 101.56 749.793 101.363 748.907 100.909L724.088 88.2112C723.317 87.8184 722.463 87.6179 721.598 87.6269C720.733 87.6358 719.884 87.854 719.122 88.2628L694.567 101.493C693.691 101.966 692.7 102.185 691.705 102.124C690.711 102.064 689.754 101.727 688.942 101.151C688.13 100.575 687.496 99.7839 687.111 98.8668C686.726 97.9496 686.606 96.9432 686.765 95.9615L691.179 68.4456C691.319 67.5925 691.247 66.7184 690.971 65.8992C690.695 65.08 690.222 64.3405 689.595 63.745L669.409 44.5183C668.687 43.8318 668.172 42.957 667.923 41.9932C667.674 41.0293 667.7 40.015 667.999 39.0654C668.298 38.1157 668.858 37.2687 669.614 36.6205C670.371 35.9723 671.294 35.5487 672.28 35.398L699.837 31.0929C700.692 30.9599 701.501 30.621 702.195 30.1057C702.89 29.5903 703.448 28.9139 703.821 28.1349L715.878 3.021C716.306 2.11767 716.979 1.35271 717.822 0.81353C718.664 0.274353 719.642 -0.017281 720.642 -0.0280437C721.643 -0.0388064 722.626 0.231737 723.48 0.752667C724.334 1.2736 725.024 2.0239 725.471 2.91782Z" fill="#FFCD3D"/>
<path d="M690.668 107.392C690.668 107.392 692.752 95.9787 691.001 94.8379C689.52 93.9609 688.785 101.144 688.785 101.144C688.785 101.144 687.304 94.5284 686.965 91.1691C686.627 87.8099 682.522 88.3488 681.517 94.7978C680.512 101.247 685.082 107.358 685.082 107.358L690.668 107.392Z" fill="#FF91A3"/>
<path d="M714.804 153.624C714.804 154.547 715.252 155.287 715.809 155.287C716.366 155.287 716.814 154.547 716.814 153.624C716.814 152.701 716.366 151.962 715.809 151.962C715.252 151.962 714.804 152.707 714.804 153.624Z" fill="#341239"/>
<path d="M725.448 153.624C725.448 154.547 725.902 155.287 726.453 155.287C727.004 155.287 727.463 154.547 727.463 153.624C727.463 152.701 727.01 151.962 726.453 151.962C725.896 151.962 725.448 152.707 725.448 153.624Z" fill="#341239"/>
<path d="M721.114 159.701V153.624C721.114 153.624 716.417 159.701 721.114 159.701Z" fill="#FF7E93"/>
<path d="M712.944 162.275C714.996 162.275 716.659 160.614 716.659 158.566C716.659 156.517 714.996 154.857 712.944 154.857C710.893 154.857 709.23 156.517 709.23 158.566C709.23 160.614 710.893 162.275 712.944 162.275Z" fill="#FF7E93"/>
<path d="M729.461 162.275C731.513 162.275 733.176 160.614 733.176 158.566C733.176 156.517 731.513 154.857 729.461 154.857C727.41 154.857 725.747 156.517 725.747 158.566C725.747 160.614 727.41 162.275 729.461 162.275Z" fill="#FF7E93"/>
<path d="M711.974 176.061L690.95 156.663L690.858 105.604H684.927C684.927 105.604 674.869 133.595 674.869 154.685C674.869 175.775 699.762 197.707 699.762 197.707L711.974 176.061Z" fill="#FF91A3"/>
<path d="M751.444 107.392C751.444 107.392 749.36 95.9787 751.111 94.8379C752.587 93.9609 753.327 101.144 753.327 101.144C753.327 101.144 754.809 94.5284 755.147 91.1691C755.486 87.8099 759.591 88.3488 760.596 94.7978C761.6 101.247 757.03 107.358 757.03 107.358L751.444 107.392Z" fill="#FF91A3"/>
<path d="M730.11 176.061L752.501 154.685L751.215 105.604H757.162C757.162 105.604 767.227 133.595 767.227 154.685C767.227 175.775 742.333 197.707 742.333 197.707L730.11 176.061Z" fill="#FF91A3"/>
<path d="M759.574 177.706C752.902 165.273 743.498 163.949 743.498 163.949L728.968 176.021C728.99 177.501 728.676 178.968 728.049 180.309C725.42 185.824 716.98 185.824 714.345 180.309C713.72 178.967 713.406 177.501 713.426 176.021L698.896 163.949C698.896 163.949 689.497 165.244 682.82 177.706C687.654 189.206 693.418 196.234 693.418 196.234L688.607 278.328C712.198 282.914 730.208 282.914 753.798 278.328L748.976 196.217C748.976 196.217 754.74 189.206 759.574 177.706Z" fill="#BE1C2F"/>
<path d="M709 151.962C709 151.962 706.646 150.277 707.329 142.01C708.012 133.744 714.064 126.372 727.463 131.749C735.564 134.959 739.233 129.915 739.233 129.915C739.233 129.915 741.529 134.828 737.62 141.873C734.692 144.796 736.133 149.262 733.733 151.652C733.733 142.956 726.269 138.468 720.792 138.468C715.315 138.468 709 143.896 709 151.962Z" fill="#38123A"/>
<path d="M709.964 140.938C709.964 140.938 723.41 147.869 734.984 140.938C725.247 129.812 712.232 132.512 709.964 140.938Z" fill="#38123A"/>
<path d="M825.735 213.231C825.735 177.661 845.398 182.849 863.207 182.849C881.016 182.849 880.276 213.231 880.276 213.231L883.755 273.903H825.735V213.231Z" fill="#FF7E93"/>
<path d="M883.755 273.903L882.434 420.333H869.212L854.303 297.704L844.692 420.333H831.453L825.735 273.903H883.755Z" fill="#38283A"/>
<path d="M830.592 420.333C830.592 420.333 822.985 419.404 815.378 427H844.319L844.692 420.333H830.592Z" fill="#FF5E4A"/>
<path d="M883.313 420.333C883.313 420.333 890.92 419.404 898.527 427H869.58L869.212 420.333H883.313Z" fill="#FF5E4A"/>
<path d="M866.411 157.895C866.411 157.895 870.389 157.477 870.389 161.638C870.389 165.8 865.262 166.224 865.262 166.224L866.411 157.895Z" fill="#FF91A3"/>
<path d="M842.35 157.895C842.35 157.895 838.371 157.477 838.371 161.638C838.371 165.8 843.498 166.224 843.498 166.224L842.35 157.895Z" fill="#FF91A3"/>
<path d="M854.389 192.227C856.382 192.227 858.293 191.436 859.703 190.029C861.112 188.622 861.904 186.713 861.904 184.723V172.22H846.891V184.723C846.891 186.71 847.68 188.616 849.086 190.023C850.491 191.43 852.399 192.222 854.389 192.227Z" fill="#FF7E93"/>
<path d="M854.389 177.706C857.631 177.697 860.737 176.407 863.03 174.118C865.322 171.83 866.614 168.728 866.623 165.491V155.854C866.62 152.613 865.331 149.506 863.038 147.212C860.745 144.918 857.635 143.625 854.389 143.615C851.147 143.625 848.04 144.915 845.748 147.203C843.455 149.492 842.163 152.594 842.154 155.831V165.468C842.157 168.709 843.447 171.816 845.74 174.11C848.033 176.404 851.143 177.697 854.389 177.706Z" fill="#FF91A3"/>
<path d="M851.065 15.0707L838.434 39.9209C838.044 40.6859 837.475 41.3457 836.776 41.8447C836.076 42.3436 835.266 42.6669 834.415 42.7871L806.76 46.496C805.773 46.6285 804.843 47.0339 804.075 47.6665C803.307 48.299 802.731 49.1335 802.412 50.0756C802.094 51.0177 802.046 52.0299 802.274 52.9979C802.501 53.9659 802.995 54.851 803.7 55.5533L823.473 75.21C824.086 75.82 824.541 76.5698 824.799 77.3947C825.057 78.2197 825.11 79.095 824.954 79.945L819.907 107.358C819.728 108.336 819.827 109.346 820.192 110.272C820.557 111.197 821.175 112.003 821.975 112.596C822.775 113.19 823.725 113.548 824.718 113.63C825.711 113.712 826.708 113.515 827.595 113.061L852.431 100.364C853.201 99.9698 854.055 99.7685 854.92 99.7775C855.786 99.7865 856.636 100.005 857.397 100.416L881.952 113.646C882.828 114.118 883.82 114.336 884.814 114.276C885.808 114.215 886.765 113.878 887.577 113.302C888.389 112.727 889.024 111.936 889.41 111.019C889.796 110.103 889.917 109.096 889.76 108.114L885.339 80.5985C885.2 79.7454 885.272 78.8712 885.548 78.052C885.824 77.2328 886.296 76.4934 886.924 75.8979L907.115 56.6654C907.835 55.978 908.348 55.1032 908.596 54.1399C908.844 53.1767 908.817 52.1634 908.518 51.2146C908.22 50.2659 907.661 49.4194 906.906 48.7709C906.151 48.1225 905.229 47.6979 904.245 47.5451L876.687 43.24C875.837 43.1036 875.033 42.7639 874.343 42.2498C873.654 41.7357 873.099 41.0625 872.726 40.2878L860.669 15.1738C860.243 14.2674 859.569 13.4995 858.726 12.958C857.882 12.4166 856.902 12.1237 855.899 12.113C854.897 12.1022 853.911 12.374 853.056 12.8971C852.201 13.4203 851.51 14.1736 851.065 15.0707Z" fill="#FFCD3D"/>
<path d="M884.053 116.042C884.053 116.042 882.027 104.933 883.726 103.821C885.167 102.972 885.885 109.932 885.885 109.932C885.885 109.932 887.326 103.488 887.653 100.226C887.98 96.9647 891.976 97.4863 892.958 103.758C893.939 110.029 889.513 115.974 889.513 115.974L884.053 116.042Z" fill="#FF91A3"/>
<path d="M862.38 169.435C864.375 169.435 865.992 167.82 865.992 165.829C865.992 163.837 864.375 162.223 862.38 162.223C860.386 162.223 858.769 163.837 858.769 165.829C858.769 167.82 860.386 169.435 862.38 169.435Z" fill="#FF7E93"/>
<path d="M849.922 165.829C849.923 166.543 849.712 167.242 849.315 167.837C848.919 168.431 848.354 168.895 847.693 169.169C847.032 169.444 846.305 169.516 845.603 169.377C844.901 169.239 844.256 168.895 843.75 168.39C843.243 167.885 842.898 167.242 842.758 166.541C842.618 165.84 842.689 165.114 842.963 164.454C843.237 163.794 843.7 163.229 844.295 162.832C844.89 162.435 845.59 162.223 846.305 162.223C847.263 162.223 848.183 162.603 848.861 163.279C849.539 163.955 849.921 164.872 849.922 165.829Z" fill="#FF7E93"/>
<path d="M842.608 160.022C842.608 160.022 846.627 167.25 854.463 167.25C862.3 167.25 865.992 160.022 865.992 160.022H866.985C866.985 160.022 869.224 178.824 854.768 178.824C840.311 178.824 841.712 160.022 841.712 160.022H842.608Z" fill="#FF5E4A"/>
<path d="M860.572 161.025C860.572 161.919 860.136 162.642 859.59 162.642C859.045 162.642 858.614 161.919 858.614 161.025C858.614 160.131 859.05 159.403 859.59 159.403C860.13 159.403 860.572 160.131 860.572 161.025Z" fill="#341239"/>
<path d="M850.215 161.025C850.215 161.919 849.773 162.642 849.233 162.642C848.694 162.642 848.251 161.919 848.251 161.025C848.251 160.131 848.694 159.403 849.233 159.403C849.773 159.403 850.215 160.131 850.215 161.025Z" fill="#341239"/>
<path d="M854.435 166.935V161.025C854.435 161.025 859.005 166.935 854.435 166.935Z" fill="#FF7E93"/>
<path d="M863.299 182.848L883.755 163.977L883.846 114.3H889.634C889.634 114.3 899.393 141.535 899.393 162.057C899.393 182.579 875.177 203.904 875.177 203.904L863.299 182.848Z" fill="#FF91A3"/>
<path d="M824.919 116.042C824.919 116.042 826.946 104.933 825.247 103.821C823.806 102.972 823.088 109.932 823.088 109.932C823.088 109.932 821.63 103.488 821.32 100.226C821.01 96.9647 816.997 97.4863 816.015 103.758C815.033 110.029 819.46 115.974 819.46 115.974L824.919 116.042Z" fill="#FF91A3"/>
<path d="M845.674 182.848L823.857 162.057L825.109 114.3H819.333C819.333 114.3 809.573 141.535 809.573 162.057C809.573 182.579 833.789 203.904 833.789 203.904L845.674 182.848Z" fill="#FF91A3"/>
<path d="M824.242 148.052H810.722C810.722 148.052 799.285 177.758 825.712 199.169L820.901 281.768C842.212 285.735 854.389 278.328 854.389 278.328C854.389 278.328 874.529 287.885 890.69 282.914L881.676 200.224C881.676 200.224 905.835 178.503 898.228 148.03H883.783C883.783 148.03 886.384 169.412 861.904 180.24L854.354 194.119L846.891 180.63C846.891 180.63 827.405 167.692 824.242 148.052Z" fill="#D94C5C"/>
<path d="M809.55 145.88H825.126L825.735 153.98L808.282 155.293L809.55 145.88Z" fill="#BE1C2F"/>
<path d="M899.227 145.88H883.048V153.98L900.496 155.293L899.227 145.88Z" fill="#BE1C2F"/>
<path d="M842.154 162.057C842.154 162.057 844.118 159.844 844.118 155.287C851.346 155.287 857.202 153.412 859.619 146.608C862.214 153.412 864.723 155.287 864.723 155.287C864.723 155.287 864.82 159.477 866.652 161.306C868.948 153.825 867.226 141.242 854.021 141.242C839.479 141.254 840.386 155.585 842.154 162.057Z" fill="#FF5E4A"/>
<path d="M846.874 178.612H844.118L848.251 197.707L854.343 194.124L860.572 197.707L864.694 178.916L861.904 178.612L854.435 190.582L846.874 178.612Z" fill="#BE1C2F"/>
</g>
<defs>
<filter id="filter0_d" x="-3" y="113" width="1448" height="418" filterUnits="userSpaceOnUse" color-interpolation-filters="sRGB">
<feFlood flood-opacity="0" result="BackgroundImageFix"/>
<feColorMatrix in="SourceAlpha" type="matrix" values="0 0 0 0 0 0 0 0 0 0 0 0 0 0 0 0 0 0 127 0"/>
<feOffset dy="4"/>
<feGaussianBlur stdDeviation="2"/>
<feColorMatrix type="matrix" values="0 0 0 0 0.898039 0 0 0 0 0.898039 0 0 0 0 0.898039 0 0 0 1 0"/>
<feBlend mode="normal" in2="BackgroundImageFix" result="effect1_dropShadow"/>
<feBlend mode="normal" in="SourceGraphic" in2="effect1_dropShadow" result="shape"/>
</filter>
<linearGradient id="paint0_linear" x1="721" y1="113" x2="721" y2="523" gradientUnits="userSpaceOnUse">
<stop stop-color="#FFC3CD"/>
<stop offset="1" stop-color="#DDDDDD"/>
</linearGradient>
</defs>
</svg>
